<svg width="15" height="15" viewBox="0 0 15 15" fill="none" xmlns="http://www.w3.org/2000/svg">
<path d="M5.62509 10.1063L3.45634 7.9375C3.33948 7.82064 3.18098 7.75499 3.01572 7.75499C2.85045 7.75499 2.69195 7.82064 2.57509 7.9375C2.45823 8.05436 2.39258 8.21286 2.39258 8.37813C2.39258 8.45996 2.4087 8.54099 2.44001 8.61659C2.47133 8.69219 2.51723 8.76089 2.57509 8.81875L5.18759 11.4313C5.43134 11.675 5.82509 11.675 6.06884 11.4313L12.6813 4.81875C12.7982 4.70189 12.8639 4.54339 12.8639 4.37813C12.8639 4.21286 12.7982 4.05436 12.6813 3.9375C12.5645 3.82064 12.406 3.75499 12.2407 3.75499C12.0754 3.75499 11.917 3.82064 11.8001 3.9375L5.62509 10.1063Z" fill="white"/>
</svg>
