<svg width="35" height="35" viewBox="0 0 35 35" fill="none" xmlns="http://www.w3.org/2000/svg">
<path d="M17.5 1.45834L4.375 7.29168V16.0417C4.375 24.1354 9.975 31.7042 17.5 33.5417C25.025 31.7042 30.625 24.1354 30.625 16.0417V7.29168L17.5 1.45834ZM17.5 7.14584C18.3653 7.14584 19.2112 7.40243 19.9306 7.88316C20.6501 8.3639 21.2108 9.04718 21.542 9.8466C21.8731 10.646 21.9597 11.5257 21.7909 12.3744C21.6221 13.223 21.2054 14.0026 20.5936 14.6144C19.9817 15.2263 19.2022 15.643 18.3535 15.8118C17.5049 15.9806 16.6252 15.894 15.8258 15.5628C15.0263 15.2317 14.3431 14.6709 13.8623 13.9515C13.3816 13.232 13.125 12.3861 13.125 11.5208C13.125 10.3605 13.5859 9.24772 14.4064 8.42725C15.2269 7.60678 16.3397 7.14584 17.5 7.14584ZM17.5 18.6667C20.4167 18.6667 26.25 20.2563 26.25 23.1583C25.2922 24.6023 23.992 25.7867 22.4652 26.6061C20.9385 27.4255 19.2327 27.8543 17.5 27.8543C15.7673 27.8543 14.0615 27.4255 12.5348 26.6061C11.008 25.7867 9.70779 24.6023 8.75 23.1583C8.75 20.2563 14.5833 18.6667 17.5 18.6667Z" fill="white"/>
</svg>
