<svg width="35" height="35" viewBox="0 0 35 35" fill="none" xmlns="http://www.w3.org/2000/svg">
<g id="maki:arrow">
<path id="Vector" d="M19.3504 5.35033C19.788 4.9129 20.3814 4.66716 21.0001 4.66716C21.6188 4.66716 22.2122 4.9129 22.6497 5.35033L33.1497 15.8503C33.5872 16.2879 33.8329 16.8813 33.8329 17.5C33.8329 18.1187 33.5872 18.7121 33.1497 19.1497L22.6497 29.6497C22.2097 30.0747 21.6203 30.3099 21.0085 30.3046C20.3967 30.2992 19.8115 30.0539 19.3788 29.6212C18.9462 29.1886 18.7008 28.6034 18.6955 27.9916C18.6902 27.3798 18.9254 26.7904 19.3504 26.3503L25.6667 19.8333H3.50008C2.88124 19.8333 2.28775 19.5875 1.85017 19.1499C1.41258 18.7123 1.16675 18.1188 1.16675 17.5C1.16675 16.8812 1.41258 16.2877 1.85017 15.8501C2.28775 15.4125 2.88124 15.1667 3.50008 15.1667H25.6667L19.3504 8.64966C18.913 8.2121 18.6672 7.61871 18.6672 6.99999C18.6672 6.38128 18.913 5.78789 19.3504 5.35033Z" fill="#F6F8E2"/>
</g>
</svg>
